#!OML:ASF H:\Terrain\Patient Classification 1\Terrain2\Thursday\justin.ASF
:FULLY-SPECIFIED
:DEGREES
3183
root -1.58279 17.5384 28.5355 -176.464 5.06605 -172.821
lowerback 5.90194 1.80277 6.14344
upperback 2.35287 3.09022 3.14447
thorax -0.73806 1.69065 -0.393741
lowerneck -15.6994 0.541706 -8.99466
upperneck 35.6755 -1.2353 4.14493
head 15.1183 -2.30282 2.81786
rclavicle -1.98785e-015 1.43125e-014
rhumerus -28.9927 -8.92864 -80.1281
rradius 30.4453
rwrist -12.4619
rhand -22.8099 9.82366
rfingers 7.12502
rthumb 3.62665 -20.1252
lclavicle -1.98785e-015 1.43125e-014
lhumerus -37.8281 15.3177 78.8802
lradius 22.4038
lwrist -4.37052
lhand -14.8142 22.6798
lfingers 7.12502
lthumb 11.344 52.353
rfemur 11.4296 -0.66822 29.9199
rtibia 11.5243
rfoot -18.0505 1.03507
rtoes 6.30439
lfemur -30.5905 2.64677 -13.0365
ltibia 27.7748
lfoot -6.86341 -6.85312
ltoes -6.58862
3184
root -1.59492 17.5353 28.4434 -176.456 4.88945 -172.942
lowerback 6.06611 1.86613 6.15129
upperback 2.2017 3.18163 3.03835
thorax -0.974159 1.7219 -0.524197
lowerneck -15.5293 0.431597 -9.15029
upperneck 35.6494 -1.50663 4.4704
head 15.0926 -2.39839 2.93611
rclavicle -5.03422e-014 -3.97569e-015
rhumerus -29.4629 -9.04719 -80.1915
rradius 30.3656
rwrist -12.1783
rhand -22.8671 9.90361
rfingers 7.12502
rthumb 3.57147 -20.0462
lclavicle -5.03422e-014 -3.97569e-015
lhumerus -37.7393 14.5861 79.1415
lradius 22.7695
lwrist -3.85326
lhand -14.3872 23.0433
lfingers 7.12502
lthumb 11.7557 52.6934
rfemur 11.924 -0.611342 29.7558
rtibia 11.1429
rfoot -17.5386 0.844775
rtoes 4.94477
lfemur -30.4785 2.01697 -13.0571
ltibia 28.0897
lfoot -6.56106 -6.29968
ltoes -4.89793
3185
root -1.60485 17.5431 28.3484 -176.511 4.57212 -173.236
lowerback 5.96882 1.85211 6.03932
upperback 2.25029 3.13247 2.89687
thorax -0.869852 1.69648 -0.599025
lowerneck -15.288 0.38014 -9.19414
upperneck 35.2676 -1.57357 4.65017
head 14.8624 -2.37388 3.00613
rclavicle 1.10822e-014 -1.07344e-014
rhumerus -29.5682 -8.96283 -80.4716
rradius 30.0719
rwrist -11.3151
rhand -24.25 8.62215
rfingers 7.12502
rthumb 2.23589 -21.3459
lclavicle 1.10822e-014 -1.07344e-014
lhumerus -37.5644 14.0471 79.4071
lradius 23.2366
lwrist -3.5254
lhand -14.1396 23.2523
lfingers 7.12502
lthumb 11.9945 52.8886
rfemur 12.4574 -0.57971 29.486
rtibia 10.7579
rfoot -16.9928 0.365516
rtoes 2.31041
lfemur -30.4548 1.97655 -13.5402
ltibia 28.4008
lfoot -6.25151 -6.43772
ltoes -5.41898
3186
root -1.60595 17.5567 28.2491 -176.538 4.11124 -173.521
lowerback 5.82268 1.76897 5.85677
upperback 2.56263 2.98905 2.78713
thorax -0.47692 1.64266 -0.587372
lowerneck -16.4314 0.185612 -9.4888
upperneck 35.6084 -1.69265 4.95141
head 15.3114 -2.39725 3.18465
rclavicle -9.44227e-015 -2.22639e-014
rhumerus -29.0253 -9.42135 -80.5597
rradius 29.6086
rwrist -10.9727
rhand -24.495 7.51525
rfingers 7.12502
rthumb 1.99931 -22.4551
lclavicle -9.44227e-015 -2.22639e-014
lhumerus -36.7136 14.1253 79.633
lradius 23.3818
lwrist -3.57458
lhand -14.2679 22.9984
lfingers 7.12502
lthumb 11.8708 52.6419
rfemur 12.8797 -0.55153 29.3167
rtibia 10.6211
rfoot -16.5576 -0.208819
rtoes 0.0286747
lfemur -30.3722 1.81016 -13.9114
ltibia 28.6225
lfoot -5.88602 -7.02425
ltoes -5.25242
3187
root -1.60952 17.57 28.1487 -176.62 3.68529 -173.848
lowerback 5.90741 1.67467 5.44238
upperback 2.48549 2.83963 2.75373
thorax -0.630129 1.55607 -0.389936
lowerneck -16.2862 0.150926 -9.31111
upperneck 35.5536 -1.72768 4.69125
head 15.2521 -2.42461 3.0332
rclavicle -5.66536e-015 1.27222e-014
rhumerus -29.2748 -9.94184 -80.261
rradius 29.2172
rwrist -11.3193
rhand -23.4382 7.90329
rfingers 7.12502
rthumb 3.01989 -22.0551
lclavicle -5.66536e-015 1.27222e-014
lhumerus -36.7315 14.1372 79.7072
lradius 23.708
lwrist -3.42453
lhand -14.4037 22.6165
lfingers 7.12502
lthumb 11.7398 52.2675
rfemur 13.2047 -0.511764 29.0659
rtibia 10.8491
rfoot -16.2855 -0.639381
rtoes -0.843975
lfemur -30.0601 1.12856 -14.1153
ltibia 28.7756
lfoot -5.44713 -7.27916
ltoes -2.08361
3188
root -1.62017 17.5816 28.0488 -176.818 3.31748 -173.986
lowerback 6.12276 1.64818 5.36696
upperback 2.45097 2.81562 2.71178
thorax -0.788219 1.53893 -0.399524
lowerneck -15.6525 0.0410618 -8.99262
upperneck 34.8854 -1.82906 4.35736
head 14.7935 -2.42607 2.81009
rclavicle -3.03147e-014 -4.96962e-014
rhumerus -29.5668 -10.7247 -79.9771
rradius 28.842
rwrist -10.9455
rhand -22.9747 8.70346
rfingers 7.12502
rthumb 3.46756 -21.2481
lclavicle -3.03147e-014 -4.96962e-014
lhumerus -36.702 13.4631 80.0564
lradius 24.1577
lwrist -2.65763
lhand -15.2994 22.3648
lfingers 7.12502
lthumb 10.876 52.0632
rfemur 13.508 -0.525459 28.9475
rtibia 11.3783
rfoot -16.1224 -0.855443
rtoes -1.16729
lfemur -29.6569 0.907841 -14.286
ltibia 28.9133
lfoot -4.98283 -7.70893
ltoes 0.66659
